<svg xmlns="http://www.w3.org/2000/svg" viewBox="0 0 561.68 152.02"><defs><style>.cls-1{fill:#97caeb;}.cls-2{fill:#0075c9;}</style></defs><title>アセット 1</title><g id="レイヤー_2" data-name="レイヤー 2"><g id="レイヤー_5" data-name="レイヤー 5"><path class="cls-1" d="M120.73,126.67C104.16,133.39,99,134.05,99,134.05c13.39,5.38,34.88,9.78,45.66,10.85,0,0,5.81.51,8,.64h0c.67.07,1.06.32,1.18.75a.9.9,0,0,1-.38,1c-1.78,1.29-9.53,2.58-10.4,2.72a157.24,157.24,0,0,1-38.89,1.44h0c-22.61-2.17-42-9.88-57.68-22.94A90.44,90.44,0,0,1,19.26,90.16c-9.83-27.56-5.73-69.87-2.77-79A15.25,15.25,0,0,1,29.22.18a31.46,31.46,0,0,1,6.93,0c10.24,1,20,6.36,27.57,15.14A46.76,46.76,0,0,1,75,42.62c1.11,21-15.9,52.16-15.34,51.21,0,0,26.6-23.83,63.23-23,0,0,18.27-.17,27.22,8,0,0,5,4,6,9.08,0,0,3.76,14-15.87,28.14C140.24,116,133.37,121.55,120.73,126.67Z"/><path class="cls-2" d="M104.05,149.09c-22.7,0-42.75-5.83-59.59-17.34A90.48,90.48,0,0,1,13.78,96.19C1.37,69.7-1.45,32.24.62,22.83a15.22,15.22,0,0,1,11.64-12.1,38.06,38.06,0,0,1,6.89-.63c10.3,0,20.56,4.41,28.9,12.44,7.47,7.2,12.8,16.62,14.61,25.83,4.47,22.83-2.48,42-6.51,50.58A72.6,72.6,0,0,1,80.5,84.16a93.06,93.06,0,0,1,31.91-5.84c14.91,0,26.47,4.13,30.16,10.77,2.12,3.81,1.66,8.36-1.32,13.14-.42.68-7.3,14.49-41.88,31.72,13.84,4.08,33.57,4.76,44.41,4.8.05,0,5.83-.05,8-.12h0c.68,0,1.09.21,1.24.62a.89.89,0,0,1-.28,1c-1.65,1.45-9.24,3.48-10.1,3.7a157.35,157.35,0,0,1-38.57,5.14Z"/></g><g id="レイヤー_6" data-name="レイヤー 6"><path class="cls-2" d="M277.57,93.42c0,19.46,10.23,33.07,24.85,33.07s24.83-13.61,24.83-33.07-10.2-33.08-24.83-33.08-24.85,13.59-24.85,33.08m5.26,0c0-13.39,6.15-27.75,19.59-27.75S322,80,322,93.42s-6.14,27.75-19.6,27.75-19.59-14.4-19.59-27.75m67.66-20.26V61.79h-5.24V125h5.24V90.52c.39-9.4,2.12-13,5.79-17.39,5.59-6.45,12.06-6.06,13.91-5.78l.78.1v-6l-.62,0a21,21,0,0,0-19.86,11.73m39.63.25V61.79h-5.26V147.2h5.26V114.59c3.39,7.69,9.9,11.9,18.65,11.9,15.25,0,24.34-12.33,24.34-33,0-20.15-9.56-33.18-24.34-33.18-10.3,0-16.11,7.2-18.65,13.07m.1,20.11c0-6.53,1.33-27.85,18.55-27.85,14.1,0,19.09,15,19.09,27.85,0,13.36-5,27.65-19.09,27.65-15.34,0-18.55-15-18.55-27.65M455.66,37.7h-4.57V125h5.27V90.88c0-15.31,7.15-25.21,18.23-25.21,12.8,0,14.28,11.16,14.28,19.56V125h5.24v-39c0-7,0-25.72-19.41-25.72a20.1,20.1,0,0,0-18.34,12.18V37.7ZM512,93.42c0,19.46,10.2,33.07,24.83,33.07s24.83-13.61,24.83-33.07-10.22-33.08-24.83-33.08S512,73.93,512,93.42m5.23,0c0-13.39,6.14-27.75,19.6-27.75S556.43,80,556.43,93.42s-6.11,27.75-19.58,27.75-19.6-14.4-19.6-27.75"/><path class="cls-2" d="M253,125V81.65c0-4.54-.83-8.17-2.48-10.77s-4.78-4-9.28-4a13.69,13.69,0,0,0-6.72,1.78,16.43,16.43,0,0,0-5.66,5.45,15.3,15.3,0,0,0-1.74,3.75,35.72,35.72,0,0,0-1.1,4.45,41,41,0,0,0-.58,4.63c-.1,1.54-.16,3-.16,4.27V125h-6V81.65c0-4.54-.83-8.17-2.48-10.77s-4.79-4-9.29-4a13.71,13.71,0,0,0-6.72,1.78,16.41,16.41,0,0,0-5.65,5.45,14.94,14.94,0,0,0-1.74,3.75,34.87,34.87,0,0,0-1.11,4.45,42.71,42.71,0,0,0-.57,4.63c-.11,1.54-.16,3-.16,4.27V125h-6V62.36h6v9.48h.09l0-.09A19,19,0,0,1,199,63.49a17.9,17.9,0,0,1,9.74-2.83,18.32,18.32,0,0,1,6.33,1,13.38,13.38,0,0,1,4.39,2.58,14.15,14.15,0,0,1,3,3.78,27.4,27.4,0,0,1,2,4.71l.13.4.17-.38A20.29,20.29,0,0,1,232,63.61a18.58,18.58,0,0,1,10.32-3,16.07,16.07,0,0,1,8.75,2.1,14.28,14.28,0,0,1,5,5.53,23.93,23.93,0,0,1,2.34,7.91,73.1,73.1,0,0,1,.58,9.21V125Z"/></g></g></svg>