<svg xmlns="http://www.w3.org/2000/svg" viewBox="0 0 388.75 103.99"><defs><style>.cls-1{fill:#97caeb;}.cls-2{fill:#0075c9;}.cls-3{fill:#fff;}</style></defs><title>アセット 1</title><g id="レイヤー_2" data-name="レイヤー 2"><g id="レイヤー_1-2" data-name="レイヤー 1"><path class="cls-1" d="M82.58,86.64c-11.33,4.6-14.9,5-14.9,5,9.16,3.68,23.86,6.69,31.23,7.42,0,0,4,.35,5.45.44h0c.47,0,.73.22.81.51a.61.61,0,0,1-.26.66c-1.22.88-6.51,1.76-7.12,1.86a107.62,107.62,0,0,1-26.59,1h0c-15.47-1.49-28.74-6.76-39.45-15.69A61.9,61.9,0,0,1,13.17,61.67C6.45,42.82,9.25,13.88,11.28,7.61A10.38,10.38,0,0,1,20,.13a20.77,20.77,0,0,1,4.73,0c7,.67,13.71,4.35,18.87,10.36A32,32,0,0,1,51.3,29.16c.76,14.34-10.88,35.67-10.49,35,0,0,18.19-16.3,43.25-15.76,0,0,12.5-.12,18.61,5.48,0,0,3.41,2.74,4.11,6.21,0,0,2.57,9.58-10.85,19.24A57.41,57.41,0,0,1,82.58,86.64Z"/><path class="cls-2" d="M71.17,102c-15.53,0-29.24-4-40.76-11.86a62,62,0,0,1-21-24.33C.94,47.67-1,22.05.42,15.62a10.42,10.42,0,0,1,8-8.28A25.91,25.91,0,0,1,13.1,6.9c7,0,14.06,3,19.76,8.52a34.57,34.57,0,0,1,10,17.67,57.18,57.18,0,0,1-4.45,34.59A49.37,49.37,0,0,1,55.07,57.57a63.56,63.56,0,0,1,21.82-4c10.2,0,18.1,2.82,20.63,7.37,1.44,2.61,1.14,5.71-.91,9-.28.47-5,9.92-28.64,21.7,9.46,2.8,23,3.26,30.37,3.28,0,0,4,0,5.47-.08h0c.46,0,.74.15.85.43a.6.6,0,0,1-.19.68c-1.13,1-6.32,2.38-6.91,2.53A107.28,107.28,0,0,1,71.18,102Z"/><path class="cls-3" d="M190.61,63.69c0,13.57,7.14,23.06,17.33,23.06s17.32-9.49,17.32-23.06-7.11-23.07-17.32-23.07-17.33,9.49-17.33,23.07m3.67,0c0-9.33,4.29-19.35,13.66-19.35s13.67,10,13.67,19.35S217.33,83,207.94,83s-13.66-10-13.66-19.35m47.19-14.12V41.64h-3.66v44.1h3.66V61.67c.27-6.55,1.47-9.05,4-12.12a10.8,10.8,0,0,1,9.7-4l.55.07V41.4l-.43,0a14.67,14.67,0,0,0-13.85,8.19m27.63.17v-8.1h-3.66V101.2h3.66V78.46c2.37,5.36,6.9,8.29,13,8.29,10.63,0,17-8.59,17-23,0-14.06-6.67-23.15-17-23.15-7.18,0-11.23,5-13,9.12m.07,14c0-4.56.93-19.43,12.94-19.43,9.83,0,13.32,10.46,13.32,19.43,0,9.31-3.5,19.27-13.32,19.27-10.7,0-12.94-10.47-12.94-19.27m45.64-38.93h-3.19v60.9h3.67V61.92c0-10.67,5-17.58,12.72-17.58,8.93,0,10,7.78,10,13.64V85.74h3.66V58.56c0-4.9,0-17.94-13.54-17.94a14.06,14.06,0,0,0-12.8,8.5V24.84Zm39.3,38.85c0,13.57,7.11,23.06,17.32,23.06s17.32-9.49,17.32-23.06-7.13-23.07-17.32-23.07-17.32,9.49-17.32,23.07m3.65,0c0-9.33,4.28-19.35,13.67-19.35s13.65,10,13.65,19.35S380.82,83,371.43,83s-13.67-10-13.67-19.35"/><path class="cls-3" d="M174.07,85.92V55.4a14.21,14.21,0,0,0-1.75-7.59c-1.17-1.85-4-2.79-7.17-2.79a10.69,10.69,0,0,0-5,1.25,11.54,11.54,0,0,0-4,3.85A10.67,10.67,0,0,0,155,52.75a25.73,25.73,0,0,0-.78,3.14,30.21,30.21,0,0,0-.4,3.26c-.08,1.09-.11,2.1-.11,3V85.92h-3.62V55.4a14.21,14.21,0,0,0-1.75-7.59C147.13,46,144.93,45,141.76,45a13.11,13.11,0,0,0-5.57,1.25,11.72,11.72,0,0,0-4,3.85A11,11,0,0,0,131,52.75a24,24,0,0,0-.77,3.14,30.25,30.25,0,0,0-.41,3.26c-.07,1.09-.11,2.1-.11,3V85.92H126V41.81h3.7v6.68h.07l0-.07a13.36,13.36,0,0,1,5.09-5.81,15.62,15.62,0,0,1,7.7-2,12.89,12.89,0,0,1,4.45.68,9.66,9.66,0,0,1,3.1,1.82,10.16,10.16,0,0,1,2.11,2.67,18.8,18.8,0,0,1,1.18,3.32l.09.27.12-.26c1.26-2.88,2.64-5,4.75-6.42a13.87,13.87,0,0,1,7.52-2.08,11.3,11.3,0,0,1,6.16,1.48,10.06,10.06,0,0,1,3.54,3.9,16.74,16.74,0,0,1,1.65,5.57,51.06,51.06,0,0,1,.4,6.49V85.92Z"/></g></g></svg>